<svg width="2152" height="371" viewBox="0 0 2152 371" fill="none" xmlns="http://www.w3.org/2000/svg">
<g clip-path="url(#clip0)">
<path fill-rule="evenodd" clip-rule="evenodd" d="M130.617 366.732C139.921 367.848 151.456 368.407 165.225 368.407C219.788 368.407 223.277 352.358 228.859 343.288V293.888C217.695 305.61 205.136 317.611 181.412 317.611C168.388 317.611 158.712 316.309 152.386 313.704C146.061 310.727 141.781 306.075 139.548 299.749C137.315 293.051 136.199 283.189 136.199 270.165V142.897L228.859 156.991V106.754L136.199 92.6601V29.5134C136.199 21.2291 129.483 14.5134 121.199 14.5134H69.7028C61.4185 14.5134 54.7028 21.2291 54.7028 29.5134V92.6601H15C6.71574 92.6601 0 99.3758 0 107.66V127.897C0 136.182 6.71573 142.897 15 142.897H54.7028V284.12C54.7028 298.26 56.9356 310.727 61.4011 321.518C65.4945 331.939 70.7044 340.124 77.0305 346.079C83.7288 352.033 92.2877 356.685 102.707 360.034C112.011 363.383 121.314 365.616 130.617 366.732ZM315.937 16C315.937 7.71574 309.221 1 300.937 1H243.854C235.572 1 228.857 7.71288 228.854 15.9953L228.751 347.995C228.748 356.281 235.464 363 243.751 363H444.027C452.301 363 459.012 356.301 459.027 348.027L459.086 315.893C459.101 307.598 452.38 300.865 444.086 300.865H315.937V16Z" fill="black"/>
</g>
<path d="M376.88 140.448H316.08V106.704H484.8V140.448H424.304V304H376.88V140.448ZM580.781 307.04C571.661 307.04 564.162 306.736 558.285 306.128C552.408 305.52 546.125 304.304 539.437 302.48C532.141 300.453 526.264 297.616 521.805 293.968C517.346 290.117 513.597 284.747 510.557 277.856C507.517 271.168 505.997 263.061 505.997 253.536V210.064C505.997 200.336 507.517 191.824 510.557 184.528C513.597 177.232 517.549 171.557 522.413 167.504C526.669 164.059 532.242 161.221 539.133 158.992C546.226 156.56 553.117 155.04 559.805 154.432C567.506 154.027 574.498 153.824 580.781 153.824C590.104 153.824 597.501 154.128 602.973 154.736C608.648 155.141 614.829 156.357 621.517 158.384C628.813 160.613 634.69 163.653 639.149 167.504C643.81 171.355 647.762 176.827 651.005 183.92C654.045 191.216 655.565 199.931 655.565 210.064V253.536C655.565 262.656 654.045 270.661 651.005 277.552C648.168 284.443 644.418 289.813 639.757 293.664C635.704 297.109 630.13 299.947 623.037 302.176C616.146 304.203 609.357 305.52 602.669 306.128C596.589 306.736 589.293 307.04 580.781 307.04ZM580.781 279.376C589.09 279.376 595.373 278.768 599.629 277.552C603.885 276.133 606.824 274.005 608.445 271.168C610.269 268.331 611.181 264.176 611.181 258.704V203.072C611.181 194.965 609.053 189.291 604.797 186.048C600.541 182.805 592.536 181.184 580.781 181.184C569.026 181.184 561.021 182.805 556.765 186.048C552.509 189.291 550.381 194.965 550.381 203.072V258.704C550.381 264.176 551.192 268.331 552.813 271.168C554.637 274.005 557.677 276.133 561.933 277.552C566.189 278.768 572.472 279.376 580.781 279.376ZM690.159 91.2H734.543V304H690.159V91.2ZM736.367 221.312L784.703 156.864H835.471L784.399 221.008L839.727 304H789.567L736.367 221.312ZM928.203 307.04C876.118 307.04 850.075 291.131 850.075 259.312V206.416C850.075 187.973 855.952 174.597 867.707 166.288C879.664 157.979 898.006 153.824 922.731 153.824C946.038 153.824 963.062 157.877 973.803 165.984C984.747 173.888 990.219 187.365 990.219 206.416V242.288H894.763V255.664C894.763 264.176 897.803 270.256 903.883 273.904C909.963 277.552 920.907 279.376 936.715 279.376C951.307 279.376 967.723 277.248 985.963 272.992V301.264C967.926 305.115 948.672 307.04 928.203 307.04ZM947.963 217.056V195.776C947.963 190.912 945.936 187.264 941.883 184.832C938.032 182.4 931.446 181.184 922.123 181.184C911.382 181.184 904.187 182.4 900.539 184.832C896.688 187.467 894.763 191.115 894.763 195.776V217.056H947.963ZM1024.14 156.864H1067.92V174.8C1071.36 160.816 1087.07 153.824 1115.04 153.824C1133.89 153.824 1147.06 157.269 1154.56 164.16C1162.26 170.848 1166.11 181.488 1166.11 196.08V304H1121.73V201.856C1121.73 196.181 1121.12 191.925 1119.9 189.088C1118.89 186.251 1116.66 184.224 1113.22 183.008C1109.97 181.792 1104.91 181.184 1098.02 181.184C1089.3 181.184 1082.92 181.792 1078.86 183.008C1074.81 184.021 1072.07 185.947 1070.66 188.784C1069.24 191.621 1068.53 195.979 1068.53 201.856V304H1024.14V156.864ZM1206.76 106.704H1254.19V270.256H1351.16V304H1206.76V106.704ZM1422.93 307.04C1409.15 307.04 1398.81 305.824 1391.92 303.392C1385.24 300.757 1380.47 296.197 1377.64 289.712C1375 283.024 1373.68 273.093 1373.68 259.92C1373.68 248.165 1375.1 238.944 1377.94 232.256C1380.98 225.568 1385.74 220.805 1392.23 217.968C1398.92 214.928 1408.04 213.408 1419.59 213.408H1469.44V203.376C1469.44 197.093 1468.53 192.432 1466.71 189.392C1465.09 186.352 1461.95 184.224 1457.28 183.008C1452.83 181.792 1446.04 181.184 1436.92 181.184C1424.35 181.184 1407.12 182.4 1385.24 184.832V156.864C1401.25 154.837 1419.99 153.824 1441.48 153.824C1460.32 153.824 1474.81 155.243 1484.95 158.08C1495.28 160.917 1502.68 165.781 1507.14 172.672C1511.6 179.563 1513.83 189.595 1513.83 202.768V304H1470.36V290.624C1466.91 296.501 1462.25 300.656 1456.37 303.088C1450.49 305.723 1439.35 307.04 1422.93 307.04ZM1440.26 279.376C1449.18 279.376 1455.56 279.072 1459.41 278.464C1462.25 278.059 1464.17 277.451 1465.19 276.64C1466.4 275.829 1467.42 274.512 1468.23 272.688C1469.04 271.269 1469.44 269.141 1469.44 266.304V237.728H1439.04C1432.15 237.728 1427.29 238.235 1424.45 239.248C1421.61 240.059 1419.69 241.883 1418.68 244.72C1417.66 247.355 1417.16 252.117 1417.16 259.008C1417.16 265.696 1417.66 270.357 1418.68 272.992C1419.69 275.627 1421.61 277.349 1424.45 278.16C1427.49 278.971 1432.76 279.376 1440.26 279.376ZM1552.88 156.864H1596.65V174.8C1600.1 160.816 1615.81 153.824 1643.77 153.824C1662.62 153.824 1675.8 157.269 1683.29 164.16C1691 170.848 1694.85 181.488 1694.85 196.08V304H1650.46V201.856C1650.46 196.181 1649.85 191.925 1648.64 189.088C1647.62 186.251 1645.4 184.224 1641.95 183.008C1638.71 181.792 1633.64 181.184 1626.75 181.184C1618.04 181.184 1611.65 181.792 1607.6 183.008C1603.54 184.021 1600.81 185.947 1599.39 188.784C1597.97 191.621 1597.26 195.979 1597.26 201.856V304H1552.88V156.864ZM1805.42 307.04C1797.72 307.04 1791.64 306.837 1787.18 306.432C1782.72 306.229 1777.25 305.723 1770.76 304.912C1764.28 304.101 1758.91 302.683 1754.65 300.656C1750.6 298.629 1746.34 295.589 1741.88 291.536C1733.57 284.645 1729.42 272.891 1729.42 256.272V207.328C1729.42 193.952 1732.46 182.805 1738.54 173.888C1740.77 170.645 1744.01 167.707 1748.27 165.072C1752.73 162.235 1757.18 160.005 1761.64 158.384C1765.29 157.168 1770.15 156.155 1776.23 155.344C1782.31 154.533 1787.69 154.027 1792.35 153.824H1808.46C1819.81 153.824 1834.7 155.648 1853.15 159.296V188.48C1832.27 183.616 1816.26 181.184 1805.11 181.184C1784.65 181.184 1774.41 188.075 1774.41 201.856V255.968C1774.41 271.573 1785.66 279.376 1808.15 279.376C1819.1 279.376 1834.81 277.147 1855.27 272.688V301.872C1836.83 305.317 1820.21 307.04 1805.42 307.04ZM1954.2 307.04C1902.12 307.04 1876.08 291.131 1876.08 259.312V206.416C1876.08 187.973 1881.95 174.597 1893.71 166.288C1905.66 157.979 1924.01 153.824 1948.73 153.824C1972.04 153.824 1989.06 157.877 1999.8 165.984C2010.75 173.888 2016.22 187.365 2016.22 206.416V242.288H1920.76V255.664C1920.76 264.176 1923.8 270.256 1929.88 273.904C1935.96 277.552 1946.91 279.376 1962.72 279.376C1977.31 279.376 1993.72 277.248 2011.96 272.992V301.264C1993.93 305.115 1974.67 307.04 1954.2 307.04ZM1973.96 217.056V195.776C1973.96 190.912 1971.94 187.264 1967.88 184.832C1964.03 182.4 1957.45 181.184 1948.12 181.184C1937.38 181.184 1930.19 182.4 1926.54 184.832C1922.69 187.467 1920.76 191.115 1920.76 195.776V217.056H1973.96ZM2050.14 156.864H2092.4V182.704C2092.4 178.043 2094.32 173.483 2098.18 169.024C2102.03 164.565 2106.89 160.917 2112.77 158.08C2118.85 155.243 2124.83 153.824 2130.7 153.824H2146.51V190.608H2131.31C2118.75 190.608 2109.42 192.533 2103.34 196.384C2097.47 200.235 2094.53 206.619 2094.53 215.536V304H2050.14V156.864Z" fill="black"/>
<defs>
<clipPath id="clip0">
<rect width="494" height="368.406" fill="white"/>
</clipPath>
</defs>
</svg>
